<svg width="30" height="32" viewBox="0 0 30 32" fill="none" xmlns="http://www.w3.org/2000/svg">
<path d="M26.7468 26.8427L20.7257 20.5669C22.4427 18.5087 23.326 15.8362 23.1894 13.1125C23.0527 10.3889 21.9068 7.82689 19.9932 5.96667C18.0797 4.10644 15.5479 3.09329 12.9316 3.14079C10.3153 3.18828 7.81895 4.29271 5.96868 6.22126C4.11841 8.14981 3.05882 10.7518 3.01325 13.4788C2.96768 16.2058 3.93971 18.8446 5.72442 20.8392C7.50914 22.8337 9.96712 24.0281 12.5802 24.1705C15.1933 24.3129 17.7574 23.3923 19.732 21.6026L25.7531 27.8785C25.8864 28.0079 26.0627 28.0784 26.2448 28.0751C26.427 28.0717 26.6008 27.9948 26.7296 27.8605C26.8584 27.7263 26.9322 27.5451 26.9354 27.3552C26.9386 27.1654 26.871 26.9816 26.7468 26.8427ZM4.45307 13.6803C4.45307 11.8926 4.96167 10.145 5.91454 8.65862C6.86742 7.1722 8.22178 6.01368 9.80636 5.32956C11.3909 4.64544 13.1346 4.46644 14.8167 4.8152C16.4989 5.16396 18.0441 6.02482 19.2569 7.28892C20.4697 8.55301 21.2956 10.1636 21.6302 11.9169C21.9648 13.6703 21.7931 15.4877 21.1367 17.1393C20.4804 18.7909 19.3689 20.2026 17.9428 21.1958C16.5167 22.1889 14.8401 22.7191 13.1249 22.7191C10.8259 22.7162 8.62177 21.7629 6.99609 20.0685C5.3704 18.374 4.45586 16.0766 4.45307 13.6803Z" fill="black"/>
</svg>
