<svg width="33" height="35" viewBox="0 0 33 35" fill="none" xmlns="http://www.w3.org/2000/svg">
<path d="M14.1429 0C11.55 0 9.42857 1.95413 9.42857 4.34251H4.71429C2.12143 4.34251 0 6.29663 0 8.68501H33C33 6.29663 30.8786 4.34251 28.2857 4.34251H23.5714C23.5714 1.95413 21.45 0 18.8571 0H14.1429ZM4.71429 13.0275V33.915C4.71429 34.3927 5.09143 34.7401 5.61 34.7401H27.4371C27.9557 34.7401 28.3329 34.3927 28.3329 33.915V13.0275H23.6186V28.2263C23.6186 29.4422 22.5814 30.3975 21.2614 30.3975C19.9414 30.3975 18.9043 29.4422 18.9043 28.2263V13.0275H14.19V28.2263C14.19 29.4422 13.1529 30.3975 11.8329 30.3975C10.5129 30.3975 9.47571 29.4422 9.47571 28.2263V13.0275H4.76143H4.71429Z" fill="black"/>
</svg>
